<svg width="141" height="141" viewBox="0 0 141 141" fill="none" xmlns="http://www.w3.org/2000/svg">
<path d="M70.5 11.75C38.1053 11.75 11.75 38.1053 11.75 70.5C11.75 102.895 38.1053 129.25 70.5 129.25C102.895 129.25 129.25 102.895 129.25 70.5C129.25 38.1053 102.895 11.75 70.5 11.75ZM70.5 117.5C44.5854 117.5 23.5 96.4146 23.5 70.5C23.5 44.5854 44.5854 23.5 70.5 23.5C96.4146 23.5 117.5 44.5854 117.5 70.5C117.5 96.4146 96.4146 117.5 70.5 117.5Z" fill="white"/>
<path d="M58.744 79.8237L45.2374 66.3406L36.9419 74.6596L58.7558 96.4264L98.1535 57.0287L89.8463 48.7214L58.744 79.8237Z" fill="white"/>
</svg>
