<svg width="144" height="144" viewBox="0 0 144 144" fill="none" xmlns="http://www.w3.org/2000/svg">
<path d="M55.0319 97.4521L71.9999 80.4841L88.9679 97.4521L97.4519 88.9681L80.4838 72.0001L97.4519 55.0321L88.9679 46.5481L71.9999 63.5161L55.0319 46.5481L46.5479 55.0321L63.5159 72.0001L46.5479 88.9681L55.0319 97.4521Z" fill="white"/>
<path d="M72 132C105.084 132 132 105.084 132 72C132 38.916 105.084 12 72 12C38.916 12 12 38.916 12 72C12 105.084 38.916 132 72 132ZM72 24C98.466 24 120 45.534 120 72C120 98.466 98.466 120 72 120C45.534 120 24 98.466 24 72C24 45.534 45.534 24 72 24Z" fill="white"/>
</svg>
